<svg xmlns="http://www.w3.org/2000/svg" viewBox="0 0 160 160">
<defs><linearGradient id="bg" x1="0" x2="1" y1="0" y2="1"><stop stop-color="#173534"/><stop offset="1" stop-color="#071314"/></linearGradient></defs>
<rect width="160" height="160" rx="34" fill="url(#bg)"/>
<circle cx="80" cy="68" r="35" fill="#f2c9a5"/>
<path d="M42 74c4-37 22-55 47-50 21 4 31 19 31 47-18-13-44-16-78 3z" fill="#2d2521"/>
<circle cx="66" cy="72" r="4" fill="#101518"/><circle cx="94" cy="72" r="4" fill="#101518"/>
<path d="M67 94c9 8 18 8 27 0" stroke="#8b4a44" stroke-width="5" fill="none" stroke-linecap="round"/>
<path d="M34 146c7-31 23-47 46-47s39 16 46 47" fill="#d7a95c"/>
<path d="M52 120h56" stroke="rgba(255,255,255,.45)" stroke-width="6" stroke-linecap="round"/>
<path d="M48 42c18-20 48-20 64 0" stroke="#e8c16b" stroke-width="9" fill="none" stroke-linecap="round"/>
<text x="80" y="154" text-anchor="middle" font-family="Arial" font-size="12" font-weight="700" fill="#dff">Mimar</text>
</svg>